# xmcd
#
# Track frame offsets:
#	150
#	9391
#	22079
#	42590
#	53256
#	62850
#	82569
#	91679
#	106841
#	114453
#
# Disc length: 1675 seconds
#
# Revision: 1
# Processed by: cddbd v1.5.2PL0 Copyright (c) Steve Scherf et al.
# Submitted via: audiograbber 1.83.01
#
DISCID=6806890a
DTITLE=The Trav'lers - The Weapon of Prayer
DYEAR=1900
DGENRE=Gospel
TTITLE0=The Pleasure Is Mine
TTITLE1=He's Living In My Heart
TTITLE2=Only Jesus Knows
TTITLE3=Take A Moment And Live
TTITLE4=I'm Going On
TTITLE5=Testing Time
TTITLE6=The Lord Will Take Care Of You
TTITLE7=The Weapon Of Prayer
TTITLE8=Humble Prayer
TTITLE9=Search Me Lord
EXTD=
EXTT0=
EXTT1=
EXTT2=
EXTT3=
EXTT4=
EXTT5=
EXTT6=
EXTT7=
EXTT8=
EXTT9=
PLAYORDER=
